MoBL_ARMS_module2_4_elbow_flexion_states	
version=1	
nRows=505	
nColumns=2	
inDegrees=yes	
	
# SIMM Motion File Header:	
name MoBL_ARMS_module2_4_elbow_flexion_states	
datacolumns 2	
datarows 505	
otherdata 1	
range 1.260527983 2.493141133	
endheader	
time	elbow_flexion
1.260527983	24.55474695
1.26290772	24.52761048
1.265287456	24.5011968
1.267667193	24.47550869
1.27004693	24.45054872
1.272426667	24.42631922
1.275310068	24.39794341
1.277652963	24.37568113
1.279995857	24.35413278
1.282338752	24.33329977
1.284681646	24.3131833
1.287024541	24.29378438
1.28996257	24.27047315
1.292296737	24.25275919
1.294630905	24.23575939
1.296965073	24.21947394
1.299299241	24.20390286
1.302259872	24.18518008
1.304448868	24.17207544
1.306637865	24.15959801
1.30938315	24.14483531
1.312128435	24.13105662
1.314297737	24.12086359
1.316467039	24.11128275
1.319262898	24.09983571
1.321732881	24.09056496
1.324202864	24.08208186
1.326672848	24.07438399
1.329142831	24.06746871
1.331612814	24.06133318
1.334082798	24.05597434
1.336552781	24.05138895
1.338774672	24.04792209
1.340996563	24.04507565
1.343218454	24.04284686
1.34611797	24.0408624
1.348508605	24.0400088
1.35089924	24.03985823
1.353289876	24.04040654
1.355680511	24.04164939
1.358071146	24.0435823
1.360461781	24.04620062
1.363349019	24.05026977
1.365682908	24.05427864
1.368016797	24.0589257
1.370350686	24.06420601
1.372684574	24.07011452
1.375511719	24.07810571
1.37784027	24.08536744
1.380168822	24.09323747
1.382497374	24.10171024
1.384825926	24.11078006
1.38772299	24.12288898
1.390096403	24.13348317
1.392469817	24.14467749
1.394843231	24.15646538
1.397216645	24.16884016
1.399590059	24.18179502
1.402467022	24.19826624
1.40475801	24.21197662
1.407048997	24.22620665
1.409339985	24.2409498
1.412135789	24.25962709
1.414534394	24.27624276
1.416932998	24.29339676
1.419331602	24.31108114
1.421730207	24.32928785
1.424128811	24.34800874
1.426527416	24.36723555
1.42892602	24.38695997
1.431324624	24.40717354
1.433723229	24.42786776
1.436121833	24.44903402
1.438520438	24.47066362
1.441474736	24.49792805
1.443815531	24.52000935
1.446156326	24.54250489
1.448497121	24.56540629
1.450837916	24.58870511
1.453178711	24.61239286
1.456105264	24.64254225
1.458458047	24.66720039
1.46081083	24.69222311
1.463163614	24.71760155
1.465516397	24.74332681
1.46786918	24.76938992
1.470851085	24.80289351
1.473176013	24.8293702
1.475500941	24.85614805
1.477825869	24.88321824
1.480150798	24.91057193
1.48296289	24.94402347
1.485358571	24.97282669
1.487754251	25.00190034
1.490149931	25.03123464
1.492545612	25.06081977
1.494941292	25.09064592
1.497336972	25.12070325
1.499732653	25.15098188
1.502128333	25.18147193
1.504524013	25.21216356
1.507409421	25.2493828
1.509673146	25.27876632
1.51193687	25.30830207
1.514200594	25.3379817
1.517152811	25.37689058
1.519491121	25.40785989
1.521829431	25.43895314
1.524167742	25.47016117
1.526977691	25.50780287
1.529216689	25.53789488
1.531455687	25.56806576
1.534210624	25.60528552
1.536685043	25.63879479
1.539159461	25.67236811
1.541633879	25.70599487
1.544108298	25.73966448
1.546582716	25.7733664
1.549057134	25.80709015
1.551234322	25.83677271
1.553411509	25.866457
1.556084726	25.90289629
1.558757943	25.93931461
1.561091745	25.97108171
1.563425546	26.00281449
1.565759348	26.03450449
1.56809315	26.0661433
1.571026108	26.10581929
1.573205243	26.13522723
1.575384379	26.16456748
1.578192288	26.20226313
1.580703165	26.23585518
1.583214042	26.26932734
1.58572492	26.3026697
1.588235797	26.33587245
1.590405179	26.36443955
1.592574561	26.39288904
1.595275061	26.42813007
1.597975561	26.46316766
1.600224272	26.49217998
1.602472983	26.52103663
1.604721694	26.54973113
1.607675481	26.58716548
1.610067428	26.61725639
1.612459375	26.64713957
1.614851322	26.67680757
1.617243269	26.70625292
1.619635216	26.73546843
1.622027163	26.76444703
1.62441911	26.79318172
1.626811058	26.82166563
1.629713174	26.85587829
1.631962599	26.88212804
1.634212025	26.90813739
1.63646145	26.933901
1.63940597	26.96724566
1.641740004	26.99336374
1.644074037	27.01919868
1.64640807	27.04474493
1.648742103	27.06999709
1.651741349	27.10200596
1.654131173	27.12714966
1.656520997	27.15196708
1.65891082	27.17645292
1.661300644	27.20060203
1.663690468	27.22440937
1.666080292	27.24787003
1.668470116	27.27097923
1.67085994	27.29373232
1.673249764	27.31612479
1.676170561	27.34299634
1.67850223	27.36405134
1.6808339	27.38475015
1.683165569	27.40508908
1.685497238	27.42506459
1.68842704	27.44964383
1.690597726	27.46747716
1.692768413	27.4849864
1.695584851	27.50721734
1.698111699	27.52669039
1.700638547	27.54571328
1.703165395	27.56428266
1.705396844	27.58030156
1.707628292	27.59596222
1.709859741	27.61126265
1.71289503	27.6314932
1.715160658	27.64615451
1.717426285	27.66043835
1.720181727	27.67729928
1.722596758	27.69161408
1.725011789	27.70549455
1.72742682	27.71893921
1.729841851	27.73194671
1.732256882	27.74451586
1.734671913	27.7566456
1.737086944	27.76833501
1.739501975	27.7795833
1.741917006	27.79038985
1.744332037	27.80075414
1.746747068	27.81067582
1.749162099	27.82015467
1.75157713	27.82919059
1.753992161	27.83778362
1.756407193	27.84593397
1.758822224	27.85364193
1.761237255	27.86090797
1.763652286	27.86773266
1.766556901	27.87535728
1.768748575	27.8806894
1.770940249	27.88566022
1.77370943	27.8914255
1.776478612	27.89661718
1.778571212	27.90016116
1.780663812	27.90337975
1.783518536	27.90724775
1.78637326	27.91051504
1.788469896	27.91253386
1.790566531	27.91423164
1.793430167	27.91603432
1.796293803	27.91724438
1.798375954	27.91775436
1.800458104	27.9179547
1.803345686	27.91772317
1.806233268	27.91690388
1.808299557	27.9159595
1.810365846	27.91471846
1.813275675	27.91247137
1.816185505	27.90964514
1.818246152	27.90729651
1.820306799	27.90466237
1.823229685	27.90044048
1.825856115	27.8961656
1.828482546	27.8914401
1.830714643	27.88707343
1.832946741	27.88238778
1.835630897	27.8763351
1.838315053	27.8698311
1.840492407	27.86422746
1.84266976	27.85833359
1.845420936	27.85047627
1.848172112	27.84216696
1.850351499	27.8352681
1.852530887	27.828093
1.855208509	27.81890436
1.857886131	27.80931015
1.8601563	27.80086295
1.862426469	27.79213279
1.864696638	27.7831237
1.867588261	27.77125091
1.869992629	27.76104532
1.872396998	27.75054227
1.874801366	27.73974678
1.877205735	27.72866394
1.879610103	27.71729888
1.882014472	27.70565676
1.88441884	27.69374284
1.886823208	27.68156237
1.889227577	27.66912069
1.891631945	27.65642316
1.894036314	27.64347517
1.896440682	27.63028219
1.899388998	27.61377818
1.90158267	27.60127091
1.903776342	27.58857415
1.906559986	27.57219652
1.909343631	27.55552928
1.911390717	27.54309252
1.913437803	27.53050737
1.916385736	27.51213032
1.91900065	27.4955863
1.921615564	27.47882153
1.923876643	27.46415302
1.926137722	27.44932979
1.928398801	27.43435667
1.931252548	27.41525231
1.933644747	27.39906679
1.936036946	27.38273141
1.938429145	27.3662519
1.940821343	27.34963401
1.943213542	27.33288346
1.945605741	27.316006
1.94799794	27.29900736
1.950390139	27.28189328
1.953322175	27.26076807
1.955561691	27.24452797
1.957801207	27.22820255
1.960500255	27.20842055
1.963199304	27.18852961
1.965347555	27.17262539
1.967495807	27.15666143
1.970301536	27.13572848
1.972749175	27.11739674
1.975196815	27.09900567
1.977644454	27.08056128
1.980092093	27.06206951
1.982539733	27.04353631
1.984987372	27.02496759
1.987435012	27.00636923
1.989882651	26.98774706
1.99233029	26.96910692
1.99477793	26.95045458
1.997225569	26.93179579
1.999673208	26.91313625
2.002120848	26.89448165
2.004568487	26.87583759
2.007016126	26.85720969
2.009463766	26.83860347
2.011911405	26.82002445
2.014359045	26.80147807
2.016806684	26.78296975
2.019254323	26.76450485
2.021701963	26.74608868
2.023903935	26.7295669
2.026105908	26.71309261
2.02830788	26.69666957
2.031376822	26.67387313
2.033687883	26.65678288
2.035998945	26.63976311
2.038310007	26.62281795
2.04129341	26.60106
2.043480073	26.585201
2.045666737	26.56942053
2.048489276	26.54917266
2.050961845	26.53155304
2.053434414	26.51404826
2.055906983	26.49666296
2.058379553	26.47940171
2.060852122	26.46226902
2.063324691	26.44526931
2.06579726	26.42840694
2.067991834	26.41355894
2.070186408	26.39882547
2.0728377	26.38118269
2.075488992	26.36371633
2.077771898	26.34882199
2.080054804	26.3340652
2.08233771	26.319449
2.085154618	26.30161208
2.087552132	26.28660711
2.089949645	26.27176778
2.092347159	26.25709737
2.094744673	26.24259902
2.097142187	26.22827584
2.099539701	26.21413083
2.101937215	26.20016695
2.104334729	26.18638709
2.107224624	26.1700258
2.109536019	26.15713831
2.111847414	26.14442989
2.114158809	26.13190288
2.116470204	26.11955951
2.119412675	26.10411521
2.12167646	26.0924409
2.123940245	26.08094937
2.12620403	26.06964248
2.129119668	26.05535474
2.131568436	26.04359653
2.134017204	26.03206121
2.136465971	26.02075084
2.138914739	26.00966735
2.141363507	25.99881263
2.143812275	25.98818847
2.146261043	25.97779659
2.148709811	25.96763861
2.151158579	25.95771608
2.153607347	25.94803049
2.156056114	25.93858323
2.158504882	25.9293756
2.16095365	25.92040885
2.163402418	25.91168412
2.165851186	25.90320249
2.168045585	25.89580926
2.170239984	25.8886127
2.172898822	25.88015741
2.175557659	25.87199276
2.177838538	25.86522099
2.180119417	25.85866423
2.182400295	25.85232293
2.185322589	25.84451381
2.187673406	25.83848939
2.190024224	25.83269493
2.192375041	25.82713061
2.194725859	25.82179659
2.197076676	25.81669294
2.199961047	25.81074567
2.202304716	25.80616859
2.204648384	25.80182028
2.206992053	25.79770056
2.209335721	25.79380918
2.212175833	25.78939907
2.214494799	25.78604606
2.216813764	25.78291541
2.21913273	25.78000665
2.221451695	25.77731923
2.224365963	25.77425486
2.226776149	25.771983
2.229186334	25.76994788
2.231596519	25.76814863
2.234006705	25.76658433
2.23641689	25.76525396
2.238827075	25.76415648
2.24123726	25.76329076
2.243647446	25.76265563
2.246057631	25.76224985
2.248467816	25.76207212
2.250878001	25.7621211
2.253288187	25.76239536
2.255698372	25.76289345
2.258108557	25.76361385
2.261047412	25.76479077
2.263212436	25.765866
2.26537746	25.76711651
2.268138319	25.76896344
2.270899179	25.77109065
2.27306258	25.7729516
2.275225981	25.77498157
2.277969295	25.77779653
2.280712609	25.78087809
2.282903816	25.78352895
2.285095024	25.7863464
2.287864251	25.79014287
2.2903392	25.79375619
2.292814149	25.79757494
2.295289098	25.80159665
2.297764047	25.80581883
2.300238997	25.81023893
2.302713946	25.81485435
2.304927308	25.81914524
2.30714067	25.82358832
2.309354032	25.82818166
2.312442307	25.83483803
2.314823933	25.84016506
2.31720556	25.84565802
2.319587187	25.85131436
2.321968814	25.8571315
2.324350441	25.86310681
2.326732067	25.86923765
2.329113694	25.87552135
2.331495321	25.8819552
2.334452971	25.89015006
2.336706687	25.89654387
2.338960402	25.90306428
2.341214118	25.90970891
2.344280238	25.91894388
2.346529321	25.92585781
2.348778403	25.93288737
2.351505395	25.94156223
2.354232386	25.95039913
2.356342568	25.95734565
2.358452749	25.96438451
2.36124289	25.97382974
2.364033031	25.98342801
2.366219091	25.991052
2.368405151	25.99876466
2.371126941	26.00848782
2.373848731	26.01834027
2.376052008	26.02640738
2.378255284	26.03455382
2.38100391	26.04482419
2.383422329	26.05395597
2.385840747	26.06317356
2.388259166	26.07247372
2.390677585	26.08185322
2.393096004	26.09130883
2.395514423	26.10083731
2.397932841	26.11043542
2.40035126	26.12009993
2.402769679	26.12982759
2.405188098	26.13961516
2.407606517	26.14945941
2.410024936	26.1593571
2.412443354	26.16930499
2.414861773	26.17929987
2.417280192	26.18933851
2.419698611	26.1994177
2.42211703	26.20953422
2.425037981	26.22179812
2.427314245	26.23138614
2.429590508	26.24099835
2.431866771	26.25063209
2.434759985	26.26290386
2.437116172	26.27291663
2.43947236	26.28294319
2.441828547	26.29298065
2.444184735	26.3030261
2.446540922	26.31307671
2.44944582	26.3254708
2.451767252	26.33537446
2.454088683	26.34527433
2.456410115	26.35516775
2.459202546	26.36705616
2.461553254	26.37705043
2.463903961	26.38702943
2.466254669	26.39699047
2.468605377	26.40693089
2.470956085	26.41684804
2.473869845	26.42910436
2.476169397	26.43874577
2.478468949	26.44835692
2.480768502	26.45793541
2.483632925	26.46981756
2.486009977	26.47963351
2.488387029	26.48940639
2.490764081	26.49913365
2.493141133	26.50881281
